<svg xmlns="http://www.w3.org/2000/svg" width="230.6" height="46" viewBox="0 0 230.6 46" role="img" aria-label="rebalancetool">
<g transform="translate(0,6)">
<rect x="0" y="0" width="34" height="34" rx="6.80" fill="#0f766e"/>
<line x1="7.555555555555555" y1="11.333333333333332" x2="26.444444444444443" y2="11.333333333333332" stroke="#5eead4" stroke-width="0.76" stroke-dasharray="1.13 1.13"/>
<rect x="8.31111111111111" y="11.333333333333332" width="4.533333333333333" height="15.11111111111111" rx="0.76" fill="#ffffff"/>
<rect x="14.733333333333333" y="17.377777777777776" width="4.533333333333333" height="9.066666666666666" rx="0.76" fill="#99f6e4"/>
<rect x="21.155555555555555" y="14.355555555555554" width="4.533333333333333" height="12.088888888888889" rx="0.76" fill="#99f6e4"/>
<path d="M17.0 15.866666666666667 l0 -2.6444444444444444 M15.866666666666667 14.355555555555554 l1.1333333333333333 -1.1333333333333333 l1.1333333333333333 1.1333333333333333" fill="none" stroke="#ffffff" stroke-width="0.76" stroke-linecap="round" stroke-linejoin="round"/>
<path d="M23.42222222222222 12.844444444444445 l0 -2.6444444444444444 M22.288888888888888 11.333333333333332 l1.1333333333333333 -1.1333333333333333 l1.1333333333333333 1.1333333333333333" fill="none" stroke="#ffffff" stroke-width="0.76" stroke-linecap="round" stroke-linejoin="round"/>
</g>
<g transform="translate(46,33.19)" fill="#0f172a"><path d="M138 0V1118H390V931H402Q432 1028 507.0 1080.5Q582 1133 678 1133Q700 1133 727.0 1131.0Q754 1129 773 1126V887Q757 892 721.0 896.0Q685 900 650 900Q578 900 520.5 869.0Q463 838 430.5 783.5Q398 729 398 658V0Z" transform="translate(0.00,0.00) scale(0.01367,-0.01367)"/> <path d="M632 -23Q463 -23 341.5 48.0Q220 119 154.5 248.0Q89 377 89 552Q89 725 153.5 855.0Q218 985 336.5 1058.5Q455 1132 615 1132Q717 1132 809.5 1099.0Q902 1066 973.5 997.0Q1045 928 1085.5 821.5Q1126 715 1126 568V486H212V663H997L875 611Q875 705 846.0 776.5Q817 848 759.5 888.0Q702 928 616 928Q530 928 470.0 887.5Q410 847 378.5 779.5Q347 712 347 629V507Q347 401 383.0 328.0Q419 255 484.0 218.0Q549 181 635 181Q692 181 738.5 197.5Q785 214 819.0 246.5Q853 279 870 326L1109 277Q1082 187 1017.0 119.5Q952 52 854.5 14.5Q757 -23 632 -23Z" transform="translate(10.84,0.00) scale(0.01367,-0.01367)"/> <path d="M728 -20Q633 -20 569.0 12.5Q505 45 467.0 91.0Q429 137 409 177H392V0H138V1490H398V933H409Q429 973 466.0 1019.0Q503 1065 566.5 1098.5Q630 1132 729 1132Q859 1132 963.0 1066.0Q1067 1000 1128.5 871.5Q1190 743 1190 557Q1190 373 1130.0 244.0Q1070 115 965.5 47.5Q861 -20 728 -20ZM658 194Q745 194 804.0 241.5Q863 289 893.0 371.5Q923 454 923 558Q923 662 893.5 743.5Q864 825 805.0 871.5Q746 918 658 918Q572 918 513.0 873.0Q454 828 423.5 747.5Q393 667 393 558Q393 449 423.5 367.0Q454 285 513.5 239.5Q573 194 658 194Z" transform="translate(27.11,0.00) scale(0.01367,-0.01367)"/> <path d="M450 -23Q344 -23 259.0 15.5Q174 54 125.0 129.0Q76 204 76 314Q76 409 111.5 471.0Q147 533 207.5 570.0Q268 607 344.0 626.0Q420 645 502 653Q599 664 660.0 672.0Q721 680 749.5 698.0Q778 716 778 754V759Q778 814 756.0 852.5Q734 891 690.5 911.5Q647 932 583 932Q518 932 470.5 912.0Q423 892 393.0 860.0Q363 828 349 791L108 840Q141 939 210.0 1003.5Q279 1068 374.5 1100.0Q470 1132 582 1132Q661 1132 741.5 1113.5Q822 1095 889.0 1051.0Q956 1007 997.0 933.0Q1038 859 1038 747V0H789V154H779Q754 107 710.5 66.5Q667 26 602.5 1.5Q538 -23 450 -23ZM517 170Q598 170 656.5 202.0Q715 234 747.5 286.5Q780 339 780 401V533Q767 523 736.5 514.0Q706 505 668.5 498.0Q631 491 594.5 486.0Q558 481 533 478Q475 470 428.0 452.0Q381 434 354.5 401.5Q328 369 328 317Q328 269 352.5 236.5Q377 204 419.5 187.0Q462 170 517 170Z" transform="translate(44.30,0.00) scale(0.01367,-0.01367)"/> <path d="M398 1490V0H138V1490Z" transform="translate(60.10,0.00) scale(0.01367,-0.01367)"/> <path d="M450 -23Q344 -23 259.0 15.5Q174 54 125.0 129.0Q76 204 76 314Q76 409 111.5 471.0Q147 533 207.5 570.0Q268 607 344.0 626.0Q420 645 502 653Q599 664 660.0 672.0Q721 680 749.5 698.0Q778 716 778 754V759Q778 814 756.0 852.5Q734 891 690.5 911.5Q647 932 583 932Q518 932 470.5 912.0Q423 892 393.0 860.0Q363 828 349 791L108 840Q141 939 210.0 1003.5Q279 1068 374.5 1100.0Q470 1132 582 1132Q661 1132 741.5 1113.5Q822 1095 889.0 1051.0Q956 1007 997.0 933.0Q1038 859 1038 747V0H789V154H779Q754 107 710.5 66.5Q667 26 602.5 1.5Q538 -23 450 -23ZM517 170Q598 170 656.5 202.0Q715 234 747.5 286.5Q780 339 780 401V533Q767 523 736.5 514.0Q706 505 668.5 498.0Q631 491 594.5 486.0Q558 481 533 478Q475 470 428.0 452.0Q381 434 354.5 401.5Q328 369 328 317Q328 269 352.5 236.5Q377 204 419.5 187.0Q462 170 517 170Z" transform="translate(67.15,0.00) scale(0.01367,-0.01367)"/> <path d="M398 655V0H138V1118H384L388 842H367Q414 987 505.0 1059.5Q596 1132 733 1132Q848 1132 934.0 1083.0Q1020 1034 1067.5 940.0Q1115 846 1115 711V0H855V671Q855 783 797.0 847.0Q739 911 637 911Q568 911 514.0 881.0Q460 851 429.0 793.5Q398 736 398 655Z" transform="translate(82.95,0.00) scale(0.01367,-0.01367)"/> <path d="M623 -23Q460 -23 340.0 49.5Q220 122 154.5 251.5Q89 381 89 553Q89 727 154.5 857.5Q220 988 340.0 1060.0Q460 1132 623 1132Q716 1132 796.0 1108.0Q876 1084 939.0 1038.5Q1002 993 1044.5 928.0Q1087 863 1105 781L862 730Q851 773 830.5 808.5Q810 844 780.0 869.0Q750 894 711.0 907.5Q672 921 625 921Q534 921 474.0 872.5Q414 824 384.0 741.5Q354 659 354 554Q354 451 384.0 368.0Q414 285 474.0 236.5Q534 188 625 188Q673 188 712.5 202.0Q752 216 782.5 242.0Q813 268 834.0 305.0Q855 342 865 387L1108 336Q1090 252 1047.5 186.0Q1005 120 941.5 73.5Q878 27 797.5 2.0Q717 -23 623 -23Z" transform="translate(99.80,0.00) scale(0.01367,-0.01367)"/> <path d="M632 -23Q463 -23 341.5 48.0Q220 119 154.5 248.0Q89 377 89 552Q89 725 153.5 855.0Q218 985 336.5 1058.5Q455 1132 615 1132Q717 1132 809.5 1099.0Q902 1066 973.5 997.0Q1045 928 1085.5 821.5Q1126 715 1126 568V486H212V663H997L875 611Q875 705 846.0 776.5Q817 848 759.5 888.0Q702 928 616 928Q530 928 470.0 887.5Q410 847 378.5 779.5Q347 712 347 629V507Q347 401 383.0 328.0Q419 255 484.0 218.0Q549 181 635 181Q692 181 738.5 197.5Q785 214 819.0 246.5Q853 279 870 326L1109 277Q1082 187 1017.0 119.5Q952 52 854.5 14.5Q757 -23 632 -23Z" transform="translate(115.83,0.00) scale(0.01367,-0.01367)"/> <path d="M655 1118V914H20V1118ZM179 1384H439V315Q439 254 465.0 225.5Q491 197 550 197Q568 197 597.5 201.5Q627 206 645 210L686 9Q643 -4 598.0 -9.5Q553 -15 512 -15Q351 -15 265.0 65.0Q179 145 179 293Z" transform="translate(132.11,0.00) scale(0.01367,-0.01367)"/> <path d="M623 -23Q460 -23 340.0 49.5Q220 122 154.5 251.5Q89 381 89 553Q89 727 154.5 857.5Q220 988 340.0 1060.0Q460 1132 623 1132Q787 1132 907.0 1060.0Q1027 988 1092.5 857.5Q1158 727 1158 553Q1158 381 1092.5 251.5Q1027 122 907.0 49.5Q787 -23 623 -23ZM623 188Q714 188 774.5 237.0Q835 286 864.5 369.0Q894 452 894 554Q894 657 864.5 740.0Q835 823 774.5 872.0Q714 921 623 921Q532 921 472.5 872.0Q413 823 383.5 740.5Q354 658 354 554Q354 452 383.5 369.0Q413 286 472.5 237.0Q532 188 623 188Z" transform="translate(141.71,0.00) scale(0.01367,-0.01367)"/> <path d="M623 -23Q460 -23 340.0 49.5Q220 122 154.5 251.5Q89 381 89 553Q89 727 154.5 857.5Q220 988 340.0 1060.0Q460 1132 623 1132Q787 1132 907.0 1060.0Q1027 988 1092.5 857.5Q1158 727 1158 553Q1158 381 1092.5 251.5Q1027 122 907.0 49.5Q787 -23 623 -23ZM623 188Q714 188 774.5 237.0Q835 286 864.5 369.0Q894 452 894 554Q894 657 864.5 740.0Q835 823 774.5 872.0Q714 921 623 921Q532 921 472.5 872.0Q413 823 383.5 740.5Q354 658 354 554Q354 452 383.5 369.0Q413 286 472.5 237.0Q532 188 623 188Z" transform="translate(158.48,0.00) scale(0.01367,-0.01367)"/> <path d="M398 1490V0H138V1490Z" transform="translate(175.25,0.00) scale(0.01367,-0.01367)"/></g>
</svg>